<svg width="32" height="32" viewBox="0 0 32 32" fill="none" xmlns="http://www.w3.org/2000/svg">
<rect x="12.9539" y="11.3043" width="11.6645" height="2.33291" transform="rotate(45 12.9539 11.3043)" fill="#999999"/>
<rect x="11.3043" y="19.5524" width="11.6645" height="2.33291" transform="rotate(-45 11.3043 19.5524)" fill="#999999"/>
<circle cx="16" cy="16" r="11" stroke="#999999" stroke-width="2"/>
<path d="M0 0V-2H-2V0H0ZM32 0H34V-2H32V0ZM32 32V34H34V32H32ZM0 32H-2V34H0V32ZM0 2H32V-2H0V2ZM30 0V32H34V0H30ZM32 30H0V34H32V30ZM2 32V0H-2V32H2Z" fill="#FF9900"/>
</svg>
